<svg width="100" height="100" viewBox="0 0 100 100" fill="none" xmlns="http://www.w3.org/2000/svg">
<g clip-path="url(#clip0_49_104)">
<path d="M50 100C77.6142 100 100 77.6142 100 50C100 22.3858 77.6142 0 50 0C22.3858 0 0 22.3858 0 50C0 77.6142 22.3858 100 50 100Z" fill="#E6E6E6"/>
<path d="M50 70.8008C73.2672 70.8008 92.1289 61.488 92.1289 50C92.1289 38.512 73.2672 29.1992 50 29.1992C26.7328 29.1992 7.87109 38.512 7.87109 50C7.87109 61.488 26.7328 70.8008 50 70.8008Z" stroke="#31A6E0" stroke-width="5" stroke-miterlimit="10"/>
<path d="M32.1061 60.6002C43.963 80.6192 61.5877 92.1021 71.4719 86.2478C81.3562 80.3936 79.757 59.4191 67.9 39.4C56.0431 19.381 38.4184 7.89813 28.5342 13.7524C18.6499 19.6067 20.2491 40.5811 32.1061 60.6002Z" stroke="#31A6E0" stroke-width="5" stroke-miterlimit="10"/>
<path d="M32.1028 39.3968C20.2459 59.4158 18.6467 80.3903 28.5309 86.2446C38.4152 92.0988 56.0399 80.616 67.8968 60.5969C79.7538 40.5779 81.353 19.6034 71.4687 13.7491C61.5845 7.89487 43.9598 19.3777 32.1028 39.3968Z" stroke="#31A6E0" stroke-width="5" stroke-miterlimit="10"/>
<path d="M55.3516 56.3477H51.3672V59.1406H49.6875V56.3867C49.2578 56.3867 48.8086 56.3867 48.3398 56.3672V59.1211H46.6602V56.3281C46.2695 56.3281 45.8594 56.3281 45.4687 56.3086H43.2812L43.6133 54.2969C43.6133 54.2969 44.8633 54.3164 44.8242 54.2969C45.293 54.2969 45.4297 53.9453 45.4492 53.75V46.1914C45.3906 45.8594 45.1562 45.4492 44.4922 45.4492C44.5117 45.4297 43.2812 45.4492 43.2812 45.4492V43.6523H45.6055C45.957 43.6523 46.3086 43.6523 46.6797 43.6328V40.8789H48.3594V43.5742C48.8086 43.5742 49.2578 43.5547 49.707 43.5547V40.8594H51.3867V43.6133H55.3906C55.3906 43.6133 55.3906 45.5078 55.3906 45.4102H48.418V48.8867H54.082V50.5859H48.418V54.2188H55.0586L55.3516 56.3477Z" fill="#103342"/>
</g>
<defs>
<clipPath id="clip0_49_104">
<rect width="100" height="100" fill="white"/>
</clipPath>
</defs>
</svg>
