<svg width="100" height="100" viewBox="0 0 100 100" fill="none" xmlns="http://www.w3.org/2000/svg">
<path d="M99.401 27.9215L56.8163 0V15.6111L84.135 33.363L80.921 43.5327H56.8163V56.4673H80.921L84.135 66.637L56.8163 84.389V100L99.401 72.1677L92.4377 50.0447L99.401 27.9215Z" fill="url(#paint0_linear_46_31)"/>
<path d="M19.7669 56.4673H43.782V43.5327H19.6776L16.553 33.363L43.782 15.6111V0L1.19751 27.9215L8.16103 50.0447L1.19751 72.1677L43.8713 100V84.389L16.553 66.637L19.7669 56.4673Z" fill="url(#paint1_linear_46_31)"/>
<mask id="mask0_46_31" style="mask-type:alpha" maskUnits="userSpaceOnUse" x="1" y="0" width="99" height="100">
<path d="M99.4013 27.9215L56.8167 0V15.6111L84.135 33.363L80.921 43.5327H56.8167V56.4673H80.921L84.135 66.637L56.8167 84.389V100L99.4013 72.1677L92.4376 50.0447L99.4013 27.9215Z" fill="url(#paint2_linear_46_31)"/>
<path d="M19.767 56.4673H43.7823V43.5327H19.6777L16.553 33.363L43.7823 15.6111V0L1.19757 27.9215L8.16111 50.0447L1.19757 72.1677L43.8716 100V84.389L16.553 66.637L19.767 56.4673Z" fill="url(#paint3_linear_46_31)"/>
</mask>
<g mask="url(#mask0_46_31)">
<path d="M98.7501 0H1.25006V100H98.7501V0Z" fill="url(#paint4_linear_46_31)"/>
</g>
<defs>
<linearGradient id="paint0_linear_46_31" x1="85.625" y1="106.875" x2="57.1" y2="-10.982" gradientUnits="userSpaceOnUse">
<stop stop-color="#0B46F9"/>
<stop offset="1" stop-color="#BBFBE0"/>
</linearGradient>
<linearGradient id="paint1_linear_46_31" x1="85.625" y1="106.875" x2="57.1" y2="-10.982" gradientUnits="userSpaceOnUse">
<stop stop-color="#0B46F9"/>
<stop offset="1" stop-color="#BBFBE0"/>
</linearGradient>
<linearGradient id="paint2_linear_46_31" x1="85.625" y1="106.875" x2="57.1" y2="-10.982" gradientUnits="userSpaceOnUse">
<stop stop-color="#0B46F9"/>
<stop offset="1" stop-color="#BBFBE0"/>
</linearGradient>
<linearGradient id="paint3_linear_46_31" x1="85.625" y1="106.875" x2="57.1" y2="-10.982" gradientUnits="userSpaceOnUse">
<stop stop-color="#0B46F9"/>
<stop offset="1" stop-color="#BBFBE0"/>
</linearGradient>
<linearGradient id="paint4_linear_46_31" x1="7.50005" y1="22.5" x2="56.875" y2="59.375" gradientUnits="userSpaceOnUse">
<stop offset="0.119792" stop-color="#8952FF" stop-opacity="0.87"/>
<stop offset="1" stop-color="#DABDFF" stop-opacity="0"/>
</linearGradient>
</defs>
</svg>
