<svg width="155" height="100" viewBox="0 0 155 100" fill="none" xmlns="http://www.w3.org/2000/svg">
<path d="M132.592 71.7886V74.9992H155V60.5187H151.735V71.7886H132.592ZM132.592 24V27.2108H151.735V38.4813H155V24H132.592ZM121.036 48.839V41.3782H126.158C128.655 41.3782 129.551 42.1965 129.551 44.432V45.754C129.551 48.052 128.687 48.839 126.158 48.839H121.036ZM129.167 50.161C131.503 49.5629 133.135 47.4218 133.135 44.8724C133.135 43.267 132.496 41.8186 131.279 40.6536C129.743 39.2051 127.693 38.4813 125.037 38.4813H117.834V60.518H121.036V51.7351H125.838C128.302 51.7351 129.295 52.7424 129.295 55.2614V60.5187H132.56V55.765C132.56 52.302 131.728 50.9801 129.167 50.6022V50.161ZM102.213 50.8848H112.073V47.9887H102.213V41.3774H113.033V38.4813H98.9477V60.518H113.513V57.6218H102.213V50.8848ZM91.4888 52.0498V53.5607C91.4888 56.7403 90.3041 57.7795 87.3274 57.7795H86.6233C83.6458 57.7795 82.2055 56.8348 82.2055 52.459V46.5403C82.2055 42.1332 83.7102 41.2197 86.6869 41.2197H87.3266C90.2401 41.2197 91.1683 42.2902 91.1999 45.2495H94.7215C94.4014 40.905 91.4564 38.1666 87.0386 38.1666C84.8941 38.1666 83.1013 38.828 81.757 40.0867C79.7401 41.9443 78.6198 45.0926 78.6198 49.4996C78.6198 53.7497 79.5805 56.898 81.5649 58.8493C82.9092 60.14 84.766 60.8326 86.5909 60.8326C88.5113 60.8326 90.2725 60.0768 91.1683 58.4401H91.616V60.518H94.5611V49.1537H85.8859V52.0498H91.4888ZM63.2552 41.3774H66.7448C70.0423 41.3774 71.8351 42.1957 71.8351 46.6035V52.3957C71.8351 56.8028 70.0423 57.6218 66.7448 57.6218H63.2552V41.3774ZM67.0324 60.5187C73.147 60.5187 75.4191 55.954 75.4191 49.5004C75.4191 42.9523 72.9866 38.482 66.968 38.482H60.0532V60.5187H67.0324ZM44.5925 50.8848H54.4524V47.9887H44.5925V41.3774H55.4122V38.4813H41.3266V60.518H55.8927V57.6218H44.5925V50.8848ZM25.7056 38.4813H22.4407V60.518H37.1661V57.6218H25.7056V38.4813ZM0 60.5187V75H22.4081V71.7886H3.26491V60.5187H0ZM0 24V38.4813H3.26491V27.2108H22.4081V24H0Z" fill="white"/>
</svg>
