<svg width="100" height="100" viewBox="0 0 100 100" fill="none" xmlns="http://www.w3.org/2000/svg">
<path d="M86.0326 11.1425L54.8023 34.3377L60.5775 20.6528L86.0326 11.1425Z" fill="#E2761B" stroke="#E2761B" stroke-linecap="round" stroke-linejoin="round"/>
<path d="M13.936 11.1425L44.9153 34.5574L39.4225 20.6528L13.936 11.1425ZM74.796 64.909L66.4783 77.6522L84.2749 82.5486L89.3911 65.1915L74.796 64.909ZM10.6403 65.1915L15.725 82.5486L33.5217 77.6522L25.204 64.909L10.6403 65.1915Z" fill="#E4761B" stroke="#E4761B" stroke-linecap="round" stroke-linejoin="round"/>
<path d="M32.5173 43.3773L27.5581 50.8789L45.2291 51.6635L44.6014 32.6742L32.5173 43.3773ZM67.4513 43.3773L55.2103 32.4545L54.8023 51.6635L72.4419 50.8789L67.4513 43.3773ZM33.5217 77.6522L44.1306 72.4733L34.9655 65.317L33.5217 77.6522ZM55.838 72.4733L66.4783 77.6522L65.0031 65.317L55.838 72.4733Z" fill="#E4761B" stroke="#E4761B" stroke-linecap="round" stroke-linejoin="round"/>
<path d="M66.4783 77.6522L55.838 72.4733L56.6855 79.4099L56.5913 82.3289L66.4783 77.6522ZM33.5217 77.6522L43.4087 82.3289L43.3459 79.4099L44.1306 72.4733L33.5217 77.6522Z" fill="#D7C1B3" stroke="#D7C1B3" stroke-linecap="round" stroke-linejoin="round"/>
<path d="M43.5656 60.7345L34.7144 58.1293L40.9605 55.2731L43.5656 60.7345ZM56.403 60.7345L59.0082 55.2731L65.2856 58.1293L56.403 60.7345Z" fill="#233447" stroke="#233447" stroke-linecap="round" stroke-linejoin="round"/>
<path d="M33.5217 77.6522L35.0282 64.909L25.204 65.1915L33.5217 77.6522ZM64.9718 64.909L66.4783 77.6522L74.796 65.1915L64.9718 64.909ZM72.4419 50.8788L54.8023 51.6635L56.4344 60.7345L59.0395 55.2731L65.317 58.1293L72.4419 50.8788ZM34.7144 58.1293L40.9918 55.2731L43.5656 60.7345L45.2291 51.6635L27.5581 50.8788L34.7144 58.1293Z" fill="#CD6116" stroke="#CD6116" stroke-linecap="round" stroke-linejoin="round"/>
<path d="M27.5581 50.8788L34.9655 65.317L34.7144 58.1293L27.5581 50.8788ZM65.317 58.1293L65.0031 65.317L72.4419 50.8788L65.317 58.1293ZM45.2291 51.6635L43.5656 60.7345L45.6372 71.4375L46.108 57.3446L45.2291 51.6635ZM54.8023 51.6635L53.9548 57.3132L54.3314 71.4375L56.4344 60.7345L54.8023 51.6635Z" fill="#E4751F" stroke="#E4751F" stroke-linecap="round" stroke-linejoin="round"/>
<path d="M56.4344 60.7345L54.3315 71.4375L55.838 72.4733L65.0031 65.317L65.317 58.1293L56.4344 60.7345ZM34.7144 58.1293L34.9655 65.317L44.1306 72.4733L45.6372 71.4375L43.5656 60.7345L34.7144 58.1293Z" fill="#F6851B" stroke="#F6851B" stroke-linecap="round" stroke-linejoin="round"/>
<path d="M56.5913 82.3289L56.6855 79.4099L55.9008 78.7194H44.0678L43.3459 79.4099L43.4087 82.3289L33.5217 77.6522L36.9743 80.4771L43.9736 85.3421H55.995L63.0257 80.4771L66.4783 77.6522L56.5913 82.3289Z" fill="#C0AD9E" stroke="#C0AD9E" stroke-linecap="round" stroke-linejoin="round"/>
<path d="M55.838 72.4733L54.3315 71.4375H45.6372L44.1306 72.4733L43.3459 79.4099L44.0678 78.7194H55.9008L56.6855 79.4099L55.838 72.4733Z" fill="#161616" stroke="#161616" stroke-linecap="round" stroke-linejoin="round"/>
<path d="M87.3509 35.8443L90.0188 23.0383L86.0326 11.1425L55.838 33.553L67.4513 43.3773L83.8669 48.1795L87.5078 43.9422L85.9385 42.8123L88.4495 40.521L86.5035 39.0144L89.0144 37.0998L87.3509 35.8443ZM9.98117 23.0383L12.6491 35.8443L10.9542 37.0998L13.4652 39.0144L11.5505 40.521L14.0615 42.8123L12.4922 43.9422L16.1017 48.1795L32.5173 43.3773L44.1306 33.553L13.936 11.1425L9.98117 23.0383Z" fill="#763D16" stroke="#763D16" stroke-linecap="round" stroke-linejoin="round"/>
<path d="M83.8669 48.1795L67.4513 43.3773L72.4419 50.8789L65.0031 65.317L74.796 65.1915H89.3911L83.8669 48.1795ZM32.5173 43.3773L16.1017 48.1795L10.6403 65.1915H25.204L34.9655 65.317L27.5581 50.8789L32.5173 43.3773ZM54.8023 51.6635L55.838 33.5531L60.6089 20.6529H39.4225L44.1306 33.5531L45.2291 51.6635L45.6058 57.376L45.6372 71.4375H54.3315L54.3942 57.376L54.8023 51.6635Z" fill="#F6851B" stroke="#F6851B" stroke-linecap="round" stroke-linejoin="round"/>
</svg>
