<svg width="100" height="100" viewBox="0 0 100 100" fill="none" xmlns="http://www.w3.org/2000/svg">
<g clip-path="url(#clip0_47_72)">
<path d="M30.3111 36H0.688798C0.506115 36 0.330905 36.0678 0.201781 36.1888C0.0725188 36.3096 0 36.4735 0 36.6445V64.3556C0 64.5265 0.0725188 64.6904 0.201781 64.8112C0.330905 64.9322 0.506115 65 0.688798 65H30.3111C30.4939 65 30.6691 64.9322 30.7982 64.8112C30.9275 64.6904 31 64.5265 31 64.3556V36.6445C31 36.4735 30.9275 36.3096 30.7982 36.1888C30.6691 36.0678 30.4939 36 30.3111 36ZM20.6666 54.6889C20.6666 54.8598 20.5941 55.0237 20.4648 55.1447C20.3357 55.2654 20.1605 55.3334 19.9778 55.3334H11.0222C10.8395 55.3334 10.6643 55.2654 10.535 55.1447C10.4059 55.0237 10.3334 54.8598 10.3334 54.6889V46.3111C10.3334 46.1402 10.4059 45.9763 10.535 45.8555C10.6643 45.7345 10.8395 45.6667 11.0222 45.6667H19.9778C20.1605 45.6667 20.3357 45.7345 20.4648 45.8555C20.5941 45.9763 20.6666 46.1402 20.6666 46.3111V54.6889Z" fill="white"/>
<path d="M90.2666 45H80.7334C80.3284 45 80 45.3282 80 45.7332V55.2666C80 55.6716 80.3284 56 80.7334 56H90.2666C90.6716 56 91 55.6716 91 55.2666V45.7332C91 45.3282 90.6716 45 90.2666 45Z" fill="white"/>
<path d="M79.4 36H71.6C71.2687 36 71 36.2686 71 36.6V44.4C71 44.7313 71.2687 45 71.6 45H79.4C79.7314 45 80 44.7313 80 44.4V36.6C80 36.2686 79.7314 36 79.4 36Z" fill="white"/>
<path d="M99.4001 36H91.6C91.2687 36 91 36.2686 91 36.6V44.4C91 44.7313 91.2687 45 91.6 45H99.4001C99.7314 45 100 44.7313 100 44.4V36.6C100 36.2686 99.7314 36 99.4001 36Z" fill="white"/>
<path d="M79.4 56H71.6C71.2687 56 71 56.2686 71 56.5999V64.4C71 64.7313 71.2687 65 71.6 65H79.4C79.7314 65 80 64.7313 80 64.4V56.5999C80 56.2686 79.7314 56 79.4 56Z" fill="white"/>
<path d="M99.4001 56H91.6C91.2687 56 91 56.2686 91 56.5999V64.4C91 64.7313 91.2687 65 91.6 65H99.4001C99.7314 65 100 64.7313 100 64.4V56.5999C100 56.2686 99.7314 56 99.4001 56Z" fill="white"/>
<path d="M64.3333 36H55.6667C55.2985 36 55 36.2686 55 36.6V44.4C55 44.7313 55.2985 45 55.6667 45H64.3333C64.7015 45 65 44.7313 65 44.4V36.6C65 36.2686 64.7015 36 64.3333 36Z" fill="white"/>
<path d="M64.3333 56H55.6667C55.2985 56 55 56.2686 55 56.5999V64.4C55 64.7313 55.2985 65 55.6667 65H64.3333C64.7015 65 65 64.7313 65 64.4V56.5999C65 56.2686 64.7015 56 64.3333 56Z" fill="white"/>
<path d="M55 46.309C55 46.138 54.9297 45.974 54.8047 45.8531C54.6796 45.7322 54.5101 45.6643 54.3333 45.6643H45V36.6448C45 36.4737 44.9297 36.3097 44.8047 36.1889C44.6796 36.0679 44.5101 36 44.3333 36H35.6667C35.4898 36 35.3202 36.0679 35.1953 36.1889C35.0702 36.3097 35 36.4737 35 36.6448V64.3553C35 64.5263 35.0702 64.6903 35.1953 64.8111C35.3202 64.9321 35.4898 65 35.6667 65H44.3333C44.5101 65 44.6796 64.9321 44.8047 64.8111C44.9297 64.6903 45 64.5263 45 64.3553V55.3358H54.3333C54.5101 55.3358 54.6796 55.2678 54.8047 55.147C54.9297 55.026 55 54.862 55 54.691V46.309Z" fill="white"/>
</g>
<defs>
<clipPath id="clip0_47_72">
<rect width="100" height="100" fill="white"/>
</clipPath>
</defs>
</svg>
