<svg width="100" height="100" viewBox="0 0 100 100" fill="none" xmlns="http://www.w3.org/2000/svg">
<g clip-path="url(#clip0_49_112)">
<path fill-rule="evenodd" clip-rule="evenodd" d="M17.8125 15.625C16.25 7.5 22.5 0 30.625 0C37.8125 0 43.75 5.9375 43.75 13.125V29.375C45.625 29.375 47.5 29.0625 49.375 29.0625C51.25 29.0625 52.8125 29.0625 54.6875 29.375V13.125C54.6875 5.9375 60.625 0 67.8125 0C75.9375 0 82.1875 7.5 80.9375 15.625L77.5 34.6875C89.6875 40 99.0625 49.375 99.0625 60.9375V68.125C99.0625 77.8125 92.8125 85.9375 83.75 91.25C74.6875 96.875 62.8125 100 49.375 100C35.9375 100 24.0625 96.875 15 91.25C6.25 85.9375 0 77.8125 0 68.125V60.9375C0 49.375 9.0625 40 21.25 34.6875L17.8125 15.625ZM72.8125 37.1875L76.875 14.6875C77.8125 9.0625 73.75 3.75 67.8125 3.75C62.8125 3.75 58.75 7.8125 58.75 12.8125V33.4375C57.5 33.125 55.9375 33.125 54.6875 33.125C52.8125 33.125 51.25 32.8125 49.375 32.8125C47.5 32.8125 45.625 32.8125 43.75 33.125C42.5 33.125 40.9375 33.4375 39.6875 33.4375V13.125C39.6875 8.125 35.625 4.0625 30.625 4.0625C25 4.0625 20.625 9.375 21.875 15L25.9375 37.5C12.8125 42.5 4.0625 51.25 4.0625 61.25V68.4375C4.0625 83.75 24.375 96.25 49.375 96.25C74.375 96.25 94.6875 83.75 94.6875 68.4375V61.25C95 50.9375 86.25 42.1875 72.8125 37.1875Z" fill="#633001"/>
<path d="M95 68.125C95 83.4375 74.6875 95.9375 49.6875 95.9375C24.6875 95.9375 4.375 83.4375 4.375 68.125V60.9375H95.3125V68.125H95Z" fill="#FEDC90"/>
<path fill-rule="evenodd" clip-rule="evenodd" d="M21.875 15C20.625 9.375 25 4.0625 30.625 4.0625C35.625 4.0625 39.6875 8.125 39.6875 13.125V33.75C42.8125 33.4375 45.9375 33.125 49.375 33.125C52.5 33.125 55.625 33.4375 58.75 33.75V13.125C58.75 8.125 62.8125 4.0625 67.8125 4.0625C73.4375 4.0625 77.8125 9.375 76.875 15L72.8125 37.5C85.9375 42.5 95 51.25 95 61.25C95 76.5625 74.6875 89.0625 49.6875 89.0625C24.6875 89.0625 4.375 76.5625 4.375 61.25C4.375 51.25 13.125 42.5 26.25 37.5L21.875 15Z" fill="#D1884F"/>
<path d="M36.875 59.0625C36.875 63.125 34.6875 66.5625 31.875 66.5625C29.0625 66.5625 26.875 63.125 26.875 59.0625C26.875 55 29.0625 51.5625 31.875 51.5625C34.6875 51.5625 36.875 55 36.875 59.0625Z" fill="#633001"/>
<path d="M71.5625 59.0625C71.5625 63.125 69.375 66.5625 66.5625 66.5625C63.75 66.5625 61.5625 63.125 61.5625 59.0625C61.5625 55 63.75 51.5625 66.5625 51.5625C69.375 51.5625 71.5625 55 71.5625 59.0625Z" fill="#633001"/>
</g>
<defs>
<clipPath id="clip0_49_112">
<rect width="99.0625" height="100" fill="white"/>
</clipPath>
</defs>
</svg>
