<svg width="121" height="100" viewBox="0 0 121 100" fill="none" xmlns="http://www.w3.org/2000/svg">
<g clip-path="url(#clip0_45_15)">
<path d="M14.2802 100C29.6804 100 41.2538 86.6728 48.1606 76.1416C47.3206 78.4716 46.8538 80.8014 46.8538 83.0381C46.8538 89.1893 50.4007 93.5694 57.4007 93.5694C67.0141 93.5694 77.2809 85.1817 82.601 76.1416C82.2276 77.4465 82.0411 78.658 82.0411 79.7763C82.0411 84.0633 84.4676 86.7661 89.4145 86.7661C105.001 86.7661 120.681 59.273 120.681 35.2284C120.681 16.4958 111.161 0 87.2678 0C45.2673 0 0 51.0718 0 84.0633C0 97.0177 7.00008 100 14.2802 100ZM72.8008 33.1781C72.8008 28.5183 75.4143 25.2564 79.2409 25.2564C82.9742 25.2564 85.5877 28.5183 85.5877 33.1781C85.5877 37.8379 82.9742 41.1929 79.2409 41.1929C75.4143 41.1929 72.8008 37.8379 72.8008 33.1781ZM92.7744 33.1781C92.7744 28.5183 95.3879 25.2564 99.2144 25.2564C102.948 25.2564 105.561 28.5183 105.561 33.1781C105.561 37.8379 102.948 41.1929 99.2144 41.1929C95.3879 41.1929 92.7744 37.8379 92.7744 33.1781Z" fill="#AB9FF2"/>
</g>
<defs>
<clipPath id="clip0_45_15">
<rect width="120.879" height="100" fill="white"/>
</clipPath>
</defs>
</svg>
