<svg width="104" height="100" viewBox="0 0 104 100" fill="none" xmlns="http://www.w3.org/2000/svg">
<g clip-path="url(#clip0_48_100)">
<path fill-rule="evenodd" clip-rule="evenodd" d="M0 100L30.7878 15.5972C34.6945 5.74269 41.978 0.164576 51.6609 0.00358463V0C51.7331 0 51.8052 0.000298014 51.8772 0.000893469C51.9491 0.000298014 52.0213 0 52.0934 0V0.00358463C61.7763 0.164576 69.0596 5.74269 72.9665 15.5972L103.754 100L84.6891 93.3656L58.3895 21.2652C56.7885 17.2772 54.9406 15.8416 51.8772 15.7783C48.8138 15.8416 46.9659 17.2772 45.3651 21.2652L19.0649 93.3656L0 100ZM65.2734 67.8613C65.2734 75.2338 59.3566 81.2102 52.0577 81.2102C44.759 81.2102 38.8422 75.2338 38.8422 67.8613C38.8422 60.4888 44.759 54.5122 52.0577 54.5122C59.3566 54.5122 65.2734 60.4888 65.2734 67.8613Z" fill="url(#paint0_linear_48_100)"/>
</g>
<defs>
<linearGradient id="paint0_linear_48_100" x1="0" y1="0" x2="0" y2="100" gradientUnits="userSpaceOnUse">
<stop stop-color="#42C1FD"/>
<stop offset="1" stop-color="#1F8EFA"/>
</linearGradient>
<clipPath id="clip0_48_100">
<rect width="103.75" height="100" fill="white"/>
</clipPath>
</defs>
</svg>
