<svg width="100" height="100" viewBox="0 0 100 100" fill="none" xmlns="http://www.w3.org/2000/svg">
<g clip-path="url(#clip0_48_90)">
<path d="M30.1482 42.0208L49.5683 22.6015L68.9987 42.0311L80.2987 30.7311L49.5683 0L18.8483 30.7209L30.1482 42.0208Z" fill="#F3BA2F"/>
<path d="M22.1683 49.9982L10.8685 38.6985L-0.431798 49.9988L10.868 61.2986L22.1683 49.9982Z" fill="#F3BA2F"/>
<path d="M30.1482 57.9792L49.5683 77.3985L68.9979 57.9697L80.3042 69.2633L80.2987 69.2697L49.5683 100L18.8475 69.2799L18.8317 69.2641L30.1482 57.9792Z" fill="#F3BA2F"/>
<path d="M88.2692 61.3039L99.5696 50.0035L88.2698 38.7038L76.9695 50.0041L88.2692 61.3039Z" fill="#F3BA2F"/>
<path d="M61.0302 49.9941H61.035L49.5683 38.5275L41.0943 47.0015H41.0936L40.1205 47.9753L38.112 49.9838L38.0962 49.9996L38.112 50.0162L49.5683 61.4726L61.035 50.0059L61.0405 49.9996L61.0302 49.9941Z" fill="#F3BA2F"/>
</g>
<defs>
<clipPath id="clip0_48_90">
<rect width="100" height="100" fill="white"/>
</clipPath>
</defs>
</svg>
