<svg width="100" height="100" viewBox="0 0 100 100" fill="none" xmlns="http://www.w3.org/2000/svg">
<g clip-path="url(#clip0_46_28)">
<path d="M80 0H20C8.95431 0 0 8.9543 0 20V80C0 91.0457 8.9543 100 20 100H80C91.0457 100 100 91.0457 100 80V20C100 8.95431 91.0457 0 80 0Z" fill="#0052FF"/>
<path fill-rule="evenodd" clip-rule="evenodd" d="M14.8438 50C14.8438 69.4163 30.5837 85.1562 50 85.1562C69.4163 85.1562 85.1562 69.4163 85.1562 50C85.1562 30.5837 69.4163 14.8438 50 14.8438C30.5837 14.8438 14.8438 30.5837 14.8438 50ZM41.0156 38.6719C39.7212 38.6719 38.6719 39.7212 38.6719 41.0156V58.9844C38.6719 60.2788 39.7212 61.3281 41.0156 61.3281H58.9844C60.2788 61.3281 61.3281 60.2788 61.3281 58.9844V41.0156C61.3281 39.7212 60.2788 38.6719 58.9844 38.6719H41.0156Z" fill="white"/>
</g>
<defs>
<clipPath id="clip0_46_28">
<rect width="100" height="100" fill="white"/>
</clipPath>
</defs>
</svg>
