<svg width="116" height="100" viewBox="0 0 116 100" fill="none" xmlns="http://www.w3.org/2000/svg">
<g clip-path="url(#clip0_47_67)">
<path d="M114.549 57.2163C119.048 47.0891 96.6736 18.6596 75.2717 6.94615C61.7738 -2.20497 47.7896 -0.984818 44.8712 3.04167C38.6694 11.8267 65.5435 19.3917 83.5406 28.0547C79.6493 29.7629 76.0013 32.8133 73.934 36.5958C67.2459 29.2749 52.5321 22.9301 35.2646 28.0547C23.5908 31.4712 13.9842 39.6462 10.2146 51.8476C9.36335 51.4816 8.26894 51.2376 7.29612 51.2376C3.28326 51.2376 0 54.532 0 58.5585C0 62.585 3.28326 65.8794 7.29612 65.8794C8.02574 65.8794 10.3362 65.3913 10.3362 65.3913L47.7896 65.6353C32.8326 89.5503 20.9156 92.9667 20.9156 97.1152C20.9156 101.264 32.2245 100.166 36.4806 98.5794C56.9098 91.2585 78.7981 68.1976 82.5678 61.6088C98.376 63.6831 111.631 63.8051 114.549 57.2163Z" fill="url(#paint0_linear_47_67)"/>
<path fill-rule="evenodd" clip-rule="evenodd" d="M83.5378 28.2895C84.3982 27.9214 84.2753 26.6946 84.0295 25.7132C83.5378 23.5049 74.3184 14.4266 65.7137 10.3781C53.9129 4.85753 45.3082 5.10289 44.079 7.67918C46.4145 12.5864 57.6007 17.1256 69.1556 22.0328C73.9496 23.9957 78.9896 26.0812 83.5378 28.2895Z" fill="url(#paint1_linear_47_67)"/>
<path fill-rule="evenodd" clip-rule="evenodd" d="M69.079 76.8074C66.7559 75.9471 64.0661 75.0867 61.0095 74.3493C64.1884 68.5729 64.922 59.8467 61.8654 54.439C57.5862 46.819 52.2066 42.7632 39.6134 42.7632C32.7667 42.7632 14.1826 45.0983 13.8158 60.707C13.8158 62.3048 13.8158 63.7796 13.9381 65.2545H47.9273C43.4036 72.5058 39.1244 77.9135 35.3342 81.9693C39.8579 83.0755 43.5259 84.0587 46.9492 85.0419C50.1281 85.9023 53.1847 86.6397 56.2413 87.5C60.8873 84.0587 65.2888 80.3716 69.079 76.8074Z" fill="url(#paint2_linear_47_67)"/>
<path d="M9.38034 63.4832C10.723 75.0292 17.4366 79.5995 31.1077 80.9225C44.7789 82.2455 52.591 81.4036 62.9664 82.2455C71.633 82.9671 79.445 87.4171 82.2525 85.8536C84.8159 84.5306 83.3511 79.5995 79.9333 76.4725C75.4169 72.3832 69.1917 69.617 58.328 68.5346C60.5251 62.6413 59.9148 54.3426 56.497 49.8926C51.6145 43.398 42.5817 40.5115 31.1077 41.7142C19.1455 43.1575 7.67145 49.0507 9.38034 63.4832Z" fill="url(#paint3_linear_47_67)"/>
</g>
<defs>
<linearGradient id="paint0_linear_47_67" x1="34.0275" y1="47.7673" x2="113.773" y2="70.3052" gradientUnits="userSpaceOnUse">
<stop stop-color="#8797FF"/>
<stop offset="1" stop-color="#AAA8FF"/>
</linearGradient>
<linearGradient id="paint1_linear_47_67" x1="97.3767" y1="49.91" x2="39.356" y2="-8.36859" gradientUnits="userSpaceOnUse">
<stop stop-color="#3B22A0"/>
<stop offset="1" stop-color="#5156D8" stop-opacity="0"/>
</linearGradient>
<linearGradient id="paint2_linear_47_67" x1="70.6745" y1="78.9133" x2="14.9844" y2="47.0622" gradientUnits="userSpaceOnUse">
<stop stop-color="#3B1E8F"/>
<stop offset="1" stop-color="#6A6FFB" stop-opacity="0"/>
</linearGradient>
<linearGradient id="paint3_linear_47_67" x1="29.9071" y1="54.1581" x2="66.7084" y2="101.615" gradientUnits="userSpaceOnUse">
<stop stop-color="#8898FF"/>
<stop offset="0.9839" stop-color="#5F47F1"/>
</linearGradient>
<clipPath id="clip0_47_67">
<rect width="115.132" height="100" fill="white"/>
</clipPath>
</defs>
</svg>
