<svg width="100" height="100" viewBox="0 0 100 100" fill="none" xmlns="http://www.w3.org/2000/svg">
<g clip-path="url(#clip0_47_85)">
<path d="M43.84 0C40.8 0 37.88 1.2 35.72 3.36L1.92 37.16C0.64 38.44 0 40.12 0 41.8C0 43.48 0.64 45.16 1.92 46.44L24.08 68.6V29.4C24.08 26.48 26.44 24.12 29.36 24.12C41.72 24.12 71.84 24.12 75.92 24.12L100 0.04H43.84V0Z" fill="#4A21EF"/>
<path d="M24.08 75.92H70.64C73.56 75.92 75.92 73.56 75.92 70.64V31.44L98.08 53.6C99.36 54.88 100 56.56 100 58.24C100 59.92 99.36 61.6 98.08 62.88L64.28 96.68C62.12 98.84 59.2 100.04 56.16 100.04H0L24.08 75.96V75.92Z" fill="#4A21EF"/>
</g>
<defs>
<clipPath id="clip0_47_85">
<rect width="100" height="100" fill="white"/>
</clipPath>
</defs>
</svg>
