<svg width="100" height="100" viewBox="0 0 100 100" fill="none" xmlns="http://www.w3.org/2000/svg">
<g clip-path="url(#clip0_46_49)">
<path d="M49.1879 63.9326H63.0684V67.5851L55.5196 77.8123H63.0684V82.1147H49.1879V78.4614L56.7368 68.2342H49.1879V63.9326Z" fill="white"/>
<path d="M96.0224 75.3771C97.7275 74.728 99.5128 73.0237 99.5128 70.0204C99.5128 66.3679 96.9965 64.0137 93.263 64.0137H84.7401V82.1148H89.4477V76.027H91.2363L94.5646 82.1148H100.002L96.0224 75.3771ZM92.6949 71.8057H89.4477V68.1532H92.6949C93.9121 68.1532 94.7242 68.8842 94.7242 69.9393C94.7242 71.0755 93.9121 71.8057 92.6949 71.8057Z" fill="white"/>
<path d="M73.2923 63.6887C67.7727 63.6887 63.8763 67.6662 63.8763 73.0237C63.8763 78.3813 67.8537 82.3579 73.2923 82.3579C78.7309 82.3579 82.7885 78.3804 82.7885 73.0237C82.7885 67.667 78.8152 63.6887 73.2923 63.6887ZM73.2923 78.1373C70.5321 78.1373 68.6616 76.027 68.6616 73.0237C68.6616 69.9393 70.5279 67.9101 73.2923 67.9101C76.0567 67.9101 77.9999 70.0204 77.9999 73.0237C77.9999 76.027 76.055 78.1373 73.2923 78.1373Z" fill="white"/>
<path d="M33.7661 63.9326H46.9156V68.1532H38.4736V70.8315H46.6725V74.9719H38.4736V77.8934H46.9156V82.1147H33.7661V63.9326Z" fill="white"/>
<path d="M31.5747 70.0204C31.5747 66.3679 29.0585 64.0137 25.325 64.0137H16.802V82.1148H21.5096V76.027H23.2957L26.6232 82.1148H32.0618L28.0844 75.3771C29.7886 74.728 31.5747 73.0237 31.5747 70.0204ZM24.7527 71.8057H21.5096V68.1532H24.7527C25.9708 68.1532 26.782 68.8842 26.782 69.9393C26.7853 71.0755 25.9741 71.8057 24.7527 71.8057Z" fill="white"/>
<path d="M0 63.9326H14.6917V68.2342H9.65913V82.1147H4.95154V68.2342H0V63.9326Z" fill="white"/>
<path d="M59.1472 26.0478C59.1472 21.2947 55.0217 17.3487 49.9999 17.3487C44.9781 17.3487 40.8526 21.2947 40.8526 26.0478V28.8279H37.0861V48.8267L49.9999 54.835L62.9138 48.8267V28.918H59.1472V26.0478ZM45.5156 26.0478C45.5156 23.806 47.4886 22.0125 49.9999 22.0125C52.5112 22.0125 54.4842 23.806 54.4842 26.0478V28.8279H45.5156V26.0478ZM57.7125 45.5984L49.9999 49.1855L42.2873 45.5984V33.5809H57.7125V45.5984Z" fill="white"/>
</g>
<defs>
<clipPath id="clip0_46_49">
<rect width="100" height="100" fill="white"/>
</clipPath>
</defs>
</svg>
