<svg width="79" height="100" viewBox="0 0 79 100" fill="none" xmlns="http://www.w3.org/2000/svg">
<g clip-path="url(#clip0_45_17)">
<path d="M0 30.7004L39 19V100C11.1426 89.1994 0 68.4995 0 56.8006V30.7004Z" fill="#0500FF"/>
<path d="M79 30.7004L39 19V100C67.5717 89.1994 79 68.4995 79 56.8006V30.7004Z" fill="url(#paint0_linear_45_17)"/>
<path d="M15.002 0H21.2042V2.82874C23.2374 0.285978 25.5758 0 29 0V5.00055H27.4404C23.3378 5.00055 21.3728 6.57261 21.3728 9.68569V15H15V0H15.002Z" fill="#0500FF"/>
<path d="M47 14.5575H41.2823V13.1698C40.0343 14.4465 38.3325 15 36.2345 15C32.2511 15 30 12.9208 30 9.09389V0H35.7177V7.95834C35.7177 9.75999 36.7208 10.8131 38.4226 10.8131C40.1244 10.8131 41.2823 9.78695 41.2823 8.04081V0H47V14.5575Z" fill="#0500FF"/>
<path d="M48 10.1348H53.5822C53.8375 11.1555 54.6919 11.5843 56.7516 11.5843C58.4321 11.5843 59.4159 11.2631 59.4159 10.6712C59.4159 10.2132 58.939 9.91802 57.5778 9.67668L53.0752 8.84351C50.0635 8.2809 48.5408 6.85591 48.5408 4.5701C48.5408 1.55872 51.2352 0 56.4662 0C61.6973 0 64.2659 1.51875 64.7109 4.77147H59.1625C59.0686 3.91218 57.989 3.38645 56.2146 3.38645C54.7895 3.38645 53.8695 3.76153 53.8695 4.32722C53.8695 4.8099 54.4703 5.18652 55.6776 5.43093L60.4017 6.3717C63.5073 6.98811 65 8.27936 65 10.3761C65 13.2799 61.9245 15 56.6953 15C51.4661 15 48.0075 13.1461 48.0075 10.1348H48.0019H48Z" fill="#0500FF"/>
<path d="M79 4.66605V0H66V4.66768H69.8793V15H75.1191V4.66442H79V4.66605Z" fill="#0500FF"/>
<path d="M14 4.66605V0H0V4.66768H4.17766V15H9.82055V4.66442H13.9982L14 4.66605Z" fill="#0500FF"/>
</g>
<defs>
<linearGradient id="paint0_linear_45_17" x1="68.4586" y1="13.3537" x2="43.5512" y2="100.435" gradientUnits="userSpaceOnUse">
<stop offset="0.02" stop-color="#0000FF"/>
<stop offset="0.08" stop-color="#0094FF"/>
<stop offset="0.16" stop-color="#48FF91"/>
<stop offset="0.42" stop-color="#0094FF"/>
<stop offset="0.68" stop-color="#0038FF"/>
<stop offset="0.9" stop-color="#0500FF"/>
</linearGradient>
<clipPath id="clip0_45_17">
<rect width="79" height="100" fill="white"/>
</clipPath>
</defs>
</svg>
