<svg width="100" height="100" viewBox="0 0 100 100" fill="none" xmlns="http://www.w3.org/2000/svg">
<path d="M80.0682 58.8589C79.2061 60.2727 77.5969 60.4796 75.1716 60.7669C74.4245 60.8704 73.5739 60.9623 72.6084 61.1118C72.4528 61.1328 72.3032 61.1854 72.1688 61.2665C72.0344 61.3475 71.918 61.4553 71.8268 61.583C71.7434 61.7107 71.6862 61.8536 71.6585 62.0036C71.6309 62.1536 71.6334 62.3076 71.6659 62.4566C71.7404 63.1881 72.0548 63.8744 72.56 64.4087C73.0651 64.943 73.7328 65.2952 74.459 65.4106C75.0765 65.6178 75.6345 65.9719 76.085 66.4424C76.5355 66.9129 76.865 67.4858 77.0452 68.1117C77.2224 68.7349 77.2439 69.392 77.1076 70.0254C76.9713 70.6587 76.6814 71.2489 76.2636 71.7439C74.5165 73.7554 71.1946 76.1462 65.2521 76.1462C64.7004 76.1462 64.1027 76.1462 63.5739 76.0773C62.4245 75.9968 61.1601 75.8589 59.9417 75.6865H59.8843H59.7463L57.2981 75.3186C54.3703 74.8006 51.4082 74.5009 48.436 74.4221C46.7399 74.4046 45.0473 74.5781 43.39 74.9393C41.3439 75.338 39.5138 76.4703 38.2438 78.1234C36.9738 79.7765 36.3513 81.8366 36.4935 83.9163C36.5084 86.0618 37.3042 88.1284 38.7321 89.7298C40.1601 91.3312 42.1223 92.3577 44.2521 92.6175C44.2521 92.6175 44.4475 94.7784 43.9417 94.7094L43.367 94.6175C37.2673 93.6521 31.4373 91.4203 26.2521 88.0658C23.0598 85.9995 20.1403 83.5395 17.5624 80.7439C17.1371 80.2727 16.7233 79.8014 16.3096 79.3186C8.78507 70.434 5.03439 58.9586 5.85917 47.345C6.68395 35.7315 12.0188 24.9013 20.7233 17.1692L20.8843 17.0198C20.8843 16.9623 21.1027 17.1462 21.1486 17.1117C21.5165 16.7899 22.413 18.4566 22.413 18.4566C22.1706 18.6661 21.9962 18.9432 21.9123 19.2524C21.8283 19.5616 21.8386 19.8889 21.9417 20.1922C22.035 20.5034 22.2197 20.7794 22.4718 20.9844C22.7239 21.1894 23.0318 21.3138 23.3555 21.3416H23.6659C24.5768 19.7496 25.7415 18.3169 27.1142 17.1003C28.2022 16.1319 29.6117 15.6034 31.0682 15.6175C32.571 15.6146 34.0151 16.2006 35.0912 17.2497C35.9878 18.1469 36.7609 19.1597 37.39 20.2612C38.3104 20.1671 39.235 20.121 40.1601 20.1232C42.5007 20.1404 44.8367 20.3325 47.1486 20.698C48.1415 19.5792 49.3054 18.6249 50.5969 17.8704C51.3437 17.4101 52.2025 17.1636 53.0797 17.1577C54.1007 17.2168 55.0875 17.5473 55.9381 18.1151C56.7888 18.6829 57.4725 19.4674 57.9188 20.3876C59.0205 22.2179 59.8346 24.2066 60.3325 26.2842C66.0797 31.1922 75.0682 42.3761 75.2751 45.8244C75.756 47.1532 76.3886 48.4221 77.1601 49.606C78.3562 51.5808 79.3828 53.6533 80.2291 55.8014C80.4395 56.289 80.5345 56.8186 80.5066 57.349C80.4787 57.8793 80.3286 58.3961 80.0682 58.8589Z" fill="white"/>
<path d="M77.1369 69.5026C77.1369 75.5256 69.838 78.9968 59.2518 77.9049C52.1484 77.1577 42.4127 77.6175 40.5507 81.2612C37.3783 87.4681 45.5162 94.5371 45.1484 94.5141C44.5047 94.4451 44.5622 94.7784 43.93 94.6865L43.3553 94.5945C37.2555 93.6291 31.4255 91.3973 26.2403 88.0428C25.5622 87.5945 24.884 87.1463 24.2288 86.6635C19.4677 83.2512 15.6543 78.6822 13.1484 73.3876C5.60815 56.9968 16.4357 45.8014 23.7461 43.2957C12.6771 52.6405 17.953 68.4681 29.1139 71.3646C32.5494 72.2795 36.175 72.1918 39.5622 71.1118C41.8272 70.5708 43.9535 69.5605 45.8036 68.1463C45.8036 68.1463 63.0449 73.3646 69.0679 72.2382C69.4242 72.1577 69.7691 72.0428 70.0794 71.9394C73.6656 70.7899 75.3553 68.4911 72.7346 67.0083H72.6541L72.8725 66.8474C73.7921 66.2267 77.1369 64.2957 77.1369 69.5026Z" fill="#DFE3E4"/>
<path d="M95.0798 49.8589C95.2532 60.7464 91.425 71.319 84.3212 79.5715C83.8155 80.1577 83.2982 80.721 82.7695 81.2727C78.6019 85.6348 73.5928 89.1062 68.0452 91.477C62.4975 93.8478 56.5266 95.0687 50.4936 95.0658C48.3284 95.0646 46.166 94.911 44.0224 94.606C31.8615 92.8359 31.0109 75.4221 42.9994 72.7669C48.9304 71.4681 54.6775 72.7669 60.1028 73.4911H60.3097C61.4821 73.652 62.6316 73.7784 63.758 73.8704C70.0569 74.3187 73.2408 71.9278 74.6775 70.2727C74.8707 70.0403 75.0039 69.7642 75.0657 69.4684C75.1275 69.1727 75.116 68.8663 75.0321 68.576C74.9482 68.2857 74.7945 68.0204 74.5844 67.8033C74.3743 67.5861 74.1143 67.4237 73.827 67.3301C72.7436 67.0962 71.7582 66.5353 71.0038 65.7234C70.2494 64.9114 69.7624 63.8875 69.6086 62.7899C69.5176 62.357 69.5162 61.91 69.6045 61.4765C69.6928 61.043 69.8689 60.6322 70.1219 60.2693C70.3749 59.9064 70.6996 59.5992 71.0759 59.3665C71.4521 59.1338 71.872 58.9806 72.3097 58.9164C77.2752 58.1692 78.9994 58.5141 78.2293 56.3991C76.7465 52.2842 73.2637 47.8129 73.1488 45.8474C72.9994 43.5485 64.3097 32.0543 58.3902 27.3301C57.9895 25.2158 57.2107 23.1911 56.0913 21.3531C55.0454 19.5945 53.4247 18.5485 51.6546 19.5945C50.2361 20.4672 48.9799 21.5795 47.9419 22.8819C44.0659 22.1536 40.1035 22.0025 36.1833 22.4336C35.5506 21.0284 34.6663 19.7507 33.5741 18.6635C32.905 18.0165 32.0149 17.6482 31.0842 17.6333C30.1536 17.6183 29.2521 17.9579 28.5626 18.583C27.0324 19.9505 25.81 21.6273 24.9764 23.5026L23.2178 23.3416C22.4879 23.2692 21.7951 22.9854 21.2241 22.5251C20.6531 22.0648 20.2287 21.448 20.003 20.7501C19.7773 20.0523 19.7601 19.3038 19.9534 18.5963C20.1467 17.8888 20.5422 17.253 21.0913 16.7669C27.509 11.1627 35.3959 7.51136 43.8213 6.24397C52.2467 4.97657 60.8588 6.146 68.6411 9.61422C76.4235 13.0824 83.0512 18.7047 87.742 25.8173C92.4328 32.93 94.9909 41.2361 95.1143 49.7554L95.0798 49.8589Z" fill="#FF4F24"/>
<path d="M48.7693 46.491C51.39 51.6634 54.0911 51.0887 57.1831 49.9393C57.1831 49.9393 55.367 40.9853 48.7693 46.491Z" fill="#FF4F24"/>
<path opacity="0.1" d="M84.2864 79.6175C83.7363 80.1367 83.236 80.7062 82.7921 81.3187C78.6245 85.6808 73.6154 89.1523 68.0678 91.523C62.5202 93.8938 56.5493 95.1147 50.5163 95.1118C48.3511 95.1107 46.1886 94.957 44.045 94.652C31.8841 92.8819 31.0335 75.4681 43.022 72.8129C48.9531 71.5141 54.7002 72.8129 60.1255 73.5371C28.8381 69.1693 53.5852 107.664 84.2864 79.6175Z" fill="black"/>
<path d="M33.9073 24.4681C31.6774 24.8129 29.3096 25.2382 27.321 25.7095C27.7984 24.0783 28.6939 22.6003 29.9187 21.4221C30.1517 21.2609 30.426 21.1698 30.7092 21.1596C30.9923 21.1494 31.2725 21.2206 31.5164 21.3646C32.5245 22.2178 33.3394 23.2757 33.9073 24.4681Z" fill="#DFE3E4"/>
</svg>
